/* XPM */
static const char * delstar_xpm[] = {
"56 15 2 1",
".	c #000000",
"+	c #FFFFFF",
"++++++++++++++++++++++++++++++++++++++++++++++++++++++++",
"++++++++++++++++++++++++++++++++++++++++++++++++++++++++",
"++++++++++++++++++++.......++++++..........+++..++++++++",
"++++++++++++++++++++........+++++..........+++..++++++++",
"++++++++++++++++++++..++++...++++..+++++++++++..++++++++",
"++++++++++++++++++++..+++++...+++..+++++++++++..++++++++",
"++++++++++++++++++++..++++++..+++..+++++++++++..++++++++",
"++++++++++++++++++++..++++++..+++......+++++++..++++++++",
"++++++++++++++++++++..++++++..+++......+++++++..++++++++",
"++++++++++++++++++++..+++++...+++..+++++++++++..++++++++",
"++++++++++++++++++++..++++...++++..+++++++++++..++++++++",
"++++++++++++++++++++........+++++..........+++.........+",
"++++++++++++++++++++.......++++++..........+++.........+",
"++++++++++++++++++++++++++++++++++++++++++++++++++++++++",
"++++++++++++++++++++++++++++++++++++++++++++++++++++++++"};
