/* XPM */
static const char * play_xpm[] = {
"24 24 2 1",
".	c #FFFFFF",
"+	c #000000",
"........................",
"........................",
"........................",
"........................",
"........................",
"........................",
".......+++..++..........",
".......+++..+++.........",
".......+++..++++........",
".......+++..+++++.......",
".......+++..++++++......",
".......+++..+++++++.....",
".......+++..+++++++.....",
".......+++..++++++......",
".......+++..+++++.......",
".......+++..++++........",
".......+++..+++.........",
".......+++..++..........",
"........................",
"........................",
"........................",
"........................",
"........................",
"........................"};
