/* XPM */
static const char * rate40_xpm[] = {
"56 15 3 1",
" 	c None",
".	c #000000",
"+	c #FFFFFF",
"++++++++++++++++++++++++++++++++++++++++++++++++++++++++",
"++++++++++++++++++++++++++++++++++++++++++++++++++++++++",
"++++++++++++++++++++++++++++++++++++++++++++++++++++++++",
"++++++++++++++++..+++++++++..+++++++++..+++++++++..+++++",
"+++++++++++++++....+++++++....+++++++....+++++++....++++",
"++++++++++++++......+++++......+++++......+++++......+++",
"+++++++++++++........+++........+++........+++........++",
"++++++++++++..........+..........+..........+..........+",
"+++++++++++++........+++........+++........+++........++",
"++++++++++++++......+++++......+++++......+++++......+++",
"+++++++++++++++....+++++++....+++++++....+++++++....++++",
"++++++++++++++++..+++++++++..+++++++++..+++++++++..+++++",
"++++++++++++++++++++++++++++++++++++++++++++++++++++++++",
"++++++++++++++++++++++++++++++++++++++++++++++++++++++++",
"++++++++++++++++++++++++++++++++++++++++++++++++++++++++"};
