/* XPM */
static const char * rate45_xpm[] = {
"56 15 3 1",
" 	c None",
".	c #000000",
"+	c #FFFFFF",
"++++++++++++++++++++++++++++++++++++++++++++++++++++++++",
"++++++++++++++++++++++++++++++++++++++++++++++++++++++++",
"++++++++++++++++++++++++++++++++++++++++++++++++++++++++",
"++++++.+++++++++..+++++++++..+++++++++..+++++++++..+++++",
"++++++..+++++++....+++++++....+++++++....+++++++....++++",
"++++++...+++++......+++++......+++++......+++++......+++",
"++++++....+++........+++........+++........+++........++",
"++++++.....+..........+..........+..........+..........+",
"++++++....+++........+++........+++........+++........++",
"++++++...+++++......+++++......+++++......+++++......+++",
"++++++..+++++++....+++++++....+++++++....+++++++....++++",
"++++++.+++++++++..+++++++++..+++++++++..+++++++++..+++++",
"++++++++++++++++++++++++++++++++++++++++++++++++++++++++",
"++++++++++++++++++++++++++++++++++++++++++++++++++++++++",
"++++++++++++++++++++++++++++++++++++++++++++++++++++++++"};
