/* XPM */
static const char * rec_xpm[] = {
"24 24 2 1",
".	c #FFFFFF",
"+	c #000000",
"........................",
"........................",
"........................",
"........................",
"........................",
"........................",
".......+++++++..........",
".......++++++++.........",
"........++...+++........",
"........++....++........",
"........++....++........",
"........++...+++........",
"........+++++++.........",
"........++++++..........",
"........++..+++.........",
"........++...+++........",
"........++....+++.......",
".......+++.....+++......",
".......+++.....+++......",
"........................",
"........................",
"........................",
"........................",
"........................"};
